<svg viewBox="0 0 200 200" xmlns="http://www.w3.org/2000/svg">
  <!-- Sfondo trasparente, tutto bianco -->
  <!-- Dentini bordo -->
  <circle cx="100" cy="5" r="5" fill="#fff"/>
  <circle cx="130" cy="9" r="5" fill="#fff"/>
  <circle cx="157" cy="22" r="5" fill="#fff"/>
  <circle cx="178" cy="43" r="5" fill="#fff"/>
  <circle cx="191" cy="70" r="5" fill="#fff"/>
  <circle cx="195" cy="100" r="5" fill="#fff"/>
  <circle cx="191" cy="130" r="5" fill="#fff"/>
  <circle cx="178" cy="157" r="5" fill="#fff"/>
  <circle cx="157" cy="178" r="5" fill="#fff"/>
  <circle cx="130" cy="191" r="5" fill="#fff"/>
  <circle cx="100" cy="195" r="5" fill="#fff"/>
  <circle cx="70" cy="191" r="5" fill="#fff"/>
  <circle cx="43" cy="178" r="5" fill="#fff"/>
  <circle cx="22" cy="157" r="5" fill="#fff"/>
  <circle cx="9" cy="130" r="5" fill="#fff"/>
  <circle cx="5" cy="100" r="5" fill="#fff"/>
  <circle cx="9" cy="70" r="5" fill="#fff"/>
  <circle cx="22" cy="43" r="5" fill="#fff"/>
  <circle cx="43" cy="22" r="5" fill="#fff"/>
  <circle cx="70" cy="9" r="5" fill="#fff"/>
  <!-- Petali -->
  <ellipse cx="100" cy="45" rx="14" ry="22" fill="#fff"/>
  <ellipse cx="100" cy="45" rx="14" ry="22" fill="#fff" transform="rotate(36 100 100)"/>
  <ellipse cx="100" cy="45" rx="14" ry="22" fill="#fff" transform="rotate(72 100 100)"/>
  <ellipse cx="100" cy="45" rx="14" ry="22" fill="#fff" transform="rotate(108 100 100)"/>
  <ellipse cx="100" cy="45" rx="14" ry="22" fill="#fff" transform="rotate(144 100 100)"/>
  <ellipse cx="100" cy="45" rx="14" ry="22" fill="#fff" transform="rotate(180 100 100)"/>
  <ellipse cx="100" cy="45" rx="14" ry="22" fill="#fff" transform="rotate(216 100 100)"/>
  <ellipse cx="100" cy="45" rx="14" ry="22" fill="#fff" transform="rotate(252 100 100)"/>
  <ellipse cx="100" cy="45" rx="14" ry="22" fill="#fff" transform="rotate(288 100 100)"/>
  <ellipse cx="100" cy="45" rx="14" ry="22" fill="#fff" transform="rotate(324 100 100)"/>
  <!-- Cerchio centrale -->
  <circle cx="100" cy="100" r="34" fill="#fff"/>
  <!-- Petali fiore centrale (scavati in nero) -->
  <ellipse cx="100" cy="78" rx="8" ry="13" fill="#000" transform="rotate(0 100 100)"/>
  <ellipse cx="100" cy="78" rx="8" ry="13" fill="#000" transform="rotate(60 100 100)"/>
  <ellipse cx="100" cy="78" rx="8" ry="13" fill="#000" transform="rotate(120 100 100)"/>
  <ellipse cx="100" cy="78" rx="8" ry="13" fill="#000" transform="rotate(180 100 100)"/>
  <ellipse cx="100" cy="78" rx="8" ry="13" fill="#000" transform="rotate(240 100 100)"/>
  <ellipse cx="100" cy="78" rx="8" ry="13" fill="#000" transform="rotate(300 100 100)"/>
  <!-- Cerchietto centrale -->
  <circle cx="100" cy="100" r="8" fill="#fff"/>
</svg>
